<?xml version="1.0" standalone="no"?><svg xmlns="http://www.w3.org/2000/svg" viewBox="0 0 1440 320"><path fill="#0068ad" fill-opacity="1" d="M0,256L30,250.7C60,245,120,235,180,218.7C240,203,300,181,360,192C420,203,480,245,540,234.7C600,224,660,160,720,149.3C780,139,840,181,900,197.3C960,213,1020,203,1080,213.3C1140,224,1200,256,1260,245.3C1320,235,1380,181,1410,154.7L1440,128L1440,0L1410,0C1380,0,1320,0,1260,0C1200,0,1140,0,1080,0C1020,0,960,0,900,0C840,0,780,0,720,0C660,0,600,0,540,0C480,0,420,0,360,0C300,0,240,0,180,0C120,0,60,0,30,0L0,0Z"></path></svg>